<svg xmlns="http://www.w3.org/2000/svg" viewBox="0 0 64 64" role="img" aria-label="Glace Club ice cream favicon">
  <rect width="64" height="64" rx="18" fill="#21120f" />
  <path d="M12 18c6-7 15-9 24-6 7 2 12 7 15 13 2 5-2 10-7 9H20c-8 0-13-9-8-16Z" fill="#fff1c8" />
  <path d="M21 20c3-5 11-7 18-4 4 2 8 5 10 9 1 3-1 6-4 6H22c-5 0-7-6-1-11Z" fill="#fff8df" />
  <path d="M19 31h27L33 58 19 31Z" fill="#d98f36" />
  <path d="M19 31h27L33 58 19 31Z" fill="none" stroke="#6f371d" stroke-width="2.2" stroke-linejoin="round" />
  <path d="m23 35 16 11M29 32l12 8M24 44l10 7M42 35 28 48M36 32 25 40M39 43l-8 11" stroke="#f6c471" stroke-width="2" stroke-linecap="round" opacity=".78" />
  <path d="M14 31c4 2 8 2 12 0 4-2 7-2 11 0 4 2 8 2 13-1v7c-7 3-12 2-16 0-4-2-6-2-10 0s-7 2-10 0v-6Z" fill="#ffb7cf" />
  <circle cx="20" cy="18" r="3" fill="#9fe3c5" />
  <circle cx="42" cy="18" r="2.5" fill="#ffd36f" />
  <path d="M27 13c3-2 9-2 13 1" fill="none" stroke="#6f371d" stroke-width="2" stroke-linecap="round" opacity=".38" />
</svg>
